<mxfile host="Electron" modified="2025-02-23T10:49:50.524Z" agent="Mozilla/5.0 (Windows NT 10.0; Win64; x64) AppleWebKit/537.36 (KHTML, like Gecko) draw.io/22.0.3 Chrome/114.0.5735.289 Electron/25.8.4 Safari/537.36" etag="s_6qsttsG5tsRv528Nzr" version="22.0.3" type="device">
  <diagram name="第 1 页" id="ililsxDGUMu3Den_fes5">
    <mxGraphModel dx="1101" dy="752" grid="1" gridSize="10" guides="1" tooltips="1" connect="1" arrows="1" fold="1" page="1" pageScale="1" pageWidth="827" pageHeight="1169" math="0" shadow="0">
      <root>
        <mxCell id="0" />
        <mxCell id="1" parent="0" />
        <mxCell id="sJroE0PUIhtuRhPAzuK_-1" value="Sentinel-2 L2A" style="rounded=1;whiteSpace=wrap;html=1;" parent="1" vertex="1">
          <mxGeometry x="80" y="60" width="120" height="60" as="geometry" />
        </mxCell>
        <mxCell id="sJroE0PUIhtuRhPAzuK_-2" value="B2,B3,B4,&lt;br&gt;B8,B11,B12" style="whiteSpace=wrap;html=1;rounded=1;" parent="1" vertex="1">
          <mxGeometry x="330" y="60" width="120" height="60" as="geometry" />
        </mxCell>
        <mxCell id="sJroE0PUIhtuRhPAzuK_-5" value="Water cover" style="rounded=1;whiteSpace=wrap;html=1;" parent="1" vertex="1">
          <mxGeometry x="580" y="60" width="120" height="60" as="geometry" />
        </mxCell>
        <mxCell id="sJroE0PUIhtuRhPAzuK_-7" value="" style="shape=flexArrow;endArrow=classic;html=1;rounded=0;width=33;endSize=8;" parent="1" edge="1">
          <mxGeometry width="50" height="50" relative="1" as="geometry">
            <mxPoint x="210" y="89.5" as="sourcePoint" />
            <mxPoint x="320" y="89.5" as="targetPoint" />
          </mxGeometry>
        </mxCell>
        <mxCell id="sJroE0PUIhtuRhPAzuK_-10" value="Subset" style="edgeLabel;html=1;align=center;verticalAlign=middle;resizable=0;points=[];" parent="sJroE0PUIhtuRhPAzuK_-7" vertex="1" connectable="0">
          <mxGeometry x="-0.2909" y="6" relative="1" as="geometry">
            <mxPoint x="11" y="7" as="offset" />
          </mxGeometry>
        </mxCell>
        <mxCell id="sJroE0PUIhtuRhPAzuK_-11" value="" style="shape=flexArrow;endArrow=classic;html=1;rounded=0;width=33;endSize=8;" parent="1" edge="1">
          <mxGeometry width="50" height="50" relative="1" as="geometry">
            <mxPoint x="460" y="89.5" as="sourcePoint" />
            <mxPoint x="570" y="89.5" as="targetPoint" />
          </mxGeometry>
        </mxCell>
        <mxCell id="sJroE0PUIhtuRhPAzuK_-12" value="WatNet" style="edgeLabel;html=1;align=center;verticalAlign=middle;resizable=0;points=[];" parent="sJroE0PUIhtuRhPAzuK_-11" vertex="1" connectable="0">
          <mxGeometry x="-0.2909" y="6" relative="1" as="geometry">
            <mxPoint x="11" y="7" as="offset" />
          </mxGeometry>
        </mxCell>
      </root>
    </mxGraphModel>
  </diagram>
</mxfile>
